<?xml version="1.0" standalone="no"?><svg xmlns="http://www.w3.org/2000/svg" viewBox="0 0 1440 320"><path fill="#ffffff" fill-opacity="1" d="M0,32L0,288L36.9,288L36.9,224L73.8,224L73.8,160L110.8,160L110.8,32L147.7,32L147.7,128L184.6,128L184.6,96L221.5,96L221.5,64L258.5,64L258.5,224L295.4,224L295.4,224L332.3,224L332.3,320L369.2,320L369.2,288L406.2,288L406.2,96L443.1,96L443.1,192L480,192L480,96L516.9,96L516.9,96L553.8,96L553.8,160L590.8,160L590.8,192L627.7,192L627.7,192L664.6,192L664.6,64L701.5,64L701.5,256L738.5,256L738.5,32L775.4,32L775.4,96L812.3,96L812.3,32L849.2,32L849.2,128L886.2,128L886.2,288L923.1,288L923.1,96L960,96L960,160L996.9,160L996.9,192L1033.8,192L1033.8,288L1070.8,288L1070.8,128L1107.7,128L1107.7,32L1144.6,32L1144.6,64L1181.5,64L1181.5,288L1218.5,288L1218.5,256L1255.4,256L1255.4,64L1292.3,64L1292.3,32L1329.2,32L1329.2,0L1366.2,0L1366.2,160L1403.1,160L1403.1,64L1440,64L1440,0L1403.1,0L1403.1,0L1366.2,0L1366.2,0L1329.2,0L1329.2,0L1292.3,0L1292.3,0L1255.4,0L1255.4,0L1218.5,0L1218.5,0L1181.5,0L1181.5,0L1144.6,0L1144.6,0L1107.7,0L1107.7,0L1070.8,0L1070.8,0L1033.8,0L1033.8,0L996.9,0L996.9,0L960,0L960,0L923.1,0L923.1,0L886.2,0L886.2,0L849.2,0L849.2,0L812.3,0L812.3,0L775.4,0L775.4,0L738.5,0L738.5,0L701.5,0L701.5,0L664.6,0L664.6,0L627.7,0L627.7,0L590.8,0L590.8,0L553.8,0L553.8,0L516.9,0L516.9,0L480,0L480,0L443.1,0L443.1,0L406.2,0L406.2,0L369.2,0L369.2,0L332.3,0L332.3,0L295.4,0L295.4,0L258.5,0L258.5,0L221.5,0L221.5,0L184.6,0L184.6,0L147.7,0L147.7,0L110.8,0L110.8,0L73.8,0L73.8,0L36.9,0L36.9,0L0,0L0,0Z"></path></svg>