<?xml version="1.0" standalone="no"?><svg xmlns="http://www.w3.org/2000/svg" viewBox="0 0 1440 320"><path fill="#19B3AD" fill-opacity="1" d="M0,288L0,192L36.9,192L36.9,192L73.8,192L73.8,256L110.8,256L110.8,96L147.7,96L147.7,64L184.6,64L184.6,160L221.5,160L221.5,224L258.5,224L258.5,96L295.4,96L295.4,96L332.3,96L332.3,256L369.2,256L369.2,128L406.2,128L406.2,288L443.1,288L443.1,256L480,256L480,192L516.9,192L516.9,96L553.8,96L553.8,64L590.8,64L590.8,288L627.7,288L627.7,64L664.6,64L664.6,224L701.5,224L701.5,64L738.5,64L738.5,224L775.4,224L775.4,288L812.3,288L812.3,0L849.2,0L849.2,0L886.2,0L886.2,64L923.1,64L923.1,96L960,96L960,288L996.9,288L996.9,32L1033.8,32L1033.8,128L1070.8,128L1070.8,96L1107.7,96L1107.7,192L1144.6,192L1144.6,192L1181.5,192L1181.5,256L1218.5,256L1218.5,160L1255.4,160L1255.4,96L1292.3,96L1292.3,64L1329.2,64L1329.2,0L1366.2,0L1366.2,32L1403.1,32L1403.1,96L1440,96L1440,320L1403.1,320L1403.1,320L1366.2,320L1366.2,320L1329.2,320L1329.2,320L1292.3,320L1292.3,320L1255.4,320L1255.4,320L1218.5,320L1218.5,320L1181.5,320L1181.5,320L1144.6,320L1144.6,320L1107.7,320L1107.7,320L1070.8,320L1070.8,320L1033.8,320L1033.8,320L996.9,320L996.9,320L960,320L960,320L923.1,320L923.1,320L886.2,320L886.2,320L849.2,320L849.2,320L812.3,320L812.3,320L775.4,320L775.4,320L738.5,320L738.5,320L701.5,320L701.5,320L664.6,320L664.6,320L627.7,320L627.7,320L590.8,320L590.8,320L553.8,320L553.8,320L516.9,320L516.9,320L480,320L480,320L443.1,320L443.1,320L406.2,320L406.2,320L369.2,320L369.2,320L332.3,320L332.3,320L295.4,320L295.4,320L258.5,320L258.5,320L221.5,320L221.5,320L184.6,320L184.6,320L147.7,320L147.7,320L110.8,320L110.8,320L73.8,320L73.8,320L36.9,320L36.9,320L0,320L0,320Z"></path></svg>