<?xml version="1.0" standalone="no"?><svg xmlns="http://www.w3.org/2000/svg" viewBox="0 0 1440 320"><path fill="#19B3AD" fill-opacity="1" d="M0,32L0,288L36.9,288L36.9,32L73.8,32L73.8,64L110.8,64L110.8,128L147.7,128L147.7,96L184.6,96L184.6,32L221.5,32L221.5,96L258.5,96L258.5,288L295.4,288L295.4,256L332.3,256L332.3,288L369.2,288L369.2,128L406.2,128L406.2,224L443.1,224L443.1,160L480,160L480,320L516.9,320L516.9,288L553.8,288L553.8,32L590.8,32L590.8,128L627.7,128L627.7,256L664.6,256L664.6,160L701.5,160L701.5,64L738.5,64L738.5,32L775.4,32L775.4,64L812.3,64L812.3,96L849.2,96L849.2,128L886.2,128L886.2,192L923.1,192L923.1,320L960,320L960,192L996.9,192L996.9,0L1033.8,0L1033.8,128L1070.8,128L1070.8,32L1107.7,32L1107.7,256L1144.6,256L1144.6,160L1181.5,160L1181.5,32L1218.5,32L1218.5,288L1255.4,288L1255.4,96L1292.3,96L1292.3,64L1329.2,64L1329.2,96L1366.2,96L1366.2,0L1403.1,0L1403.1,192L1440,192L1440,0L1403.1,0L1403.1,0L1366.2,0L1366.2,0L1329.2,0L1329.2,0L1292.3,0L1292.3,0L1255.4,0L1255.4,0L1218.5,0L1218.5,0L1181.5,0L1181.5,0L1144.6,0L1144.6,0L1107.7,0L1107.7,0L1070.8,0L1070.8,0L1033.8,0L1033.8,0L996.9,0L996.9,0L960,0L960,0L923.1,0L923.1,0L886.2,0L886.2,0L849.2,0L849.2,0L812.3,0L812.3,0L775.4,0L775.4,0L738.5,0L738.5,0L701.5,0L701.5,0L664.6,0L664.6,0L627.7,0L627.7,0L590.8,0L590.8,0L553.8,0L553.8,0L516.9,0L516.9,0L480,0L480,0L443.1,0L443.1,0L406.2,0L406.2,0L369.2,0L369.2,0L332.3,0L332.3,0L295.4,0L295.4,0L258.5,0L258.5,0L221.5,0L221.5,0L184.6,0L184.6,0L147.7,0L147.7,0L110.8,0L110.8,0L73.8,0L73.8,0L36.9,0L36.9,0L0,0L0,0Z"></path></svg>